<?xml version="1.0" encoding="utf-8" ?><svg xmlns="http://www.w3.org/2000/svg" xmlns:xlink="http://www.w3.org/1999/xlink" width="584" height="584" viewBox="0 0 584 584"><path fill="#F5F5F4" transform="translate(10 5)" d="M0 0L564 0L564 564L0 564L0 0Z"/><path fill="white" transform="translate(10 5)" d="M81.5132 25.1205L80.1071 24.8048L80.0998 24.5851C80.9261 24.4429 84.0247 24.195 84.6429 24.311C90.4805 25.4068 133.043 24.1481 134.317 25.0127C141.507 25.3803 150.63 25.1374 157.934 25.1423L204.046 25.1237L347.388 25.1224L419.442 25.1359C428.573 25.2038 437.813 25.4912 446.959 25.3146C449.739 25.2609 456.561 25.4006 459.035 25.0204C460.472 24.7293 461.802 24.7773 463.263 24.7788C472.093 24.7878 480.892 24.861 489.714 24.458C490.378 24.4277 491.261 24.4438 491.838 24.7899L491.769 25.2088L491.392 25.4166C493.815 26.2079 497.119 26.0978 499.589 26.8888C501.336 27.4483 503.139 28.2118 504.87 28.8452C523.413 35.6302 537.122 53.8014 537.966 73.6405C538.446 84.9354 538.275 96.548 538.163 107.991L537.911 155.151L537.89 312.441L537.818 452.192L537.837 475.989C537.853 481.437 538.04 492.635 536.747 497.793C533.236 512.353 523.902 524.833 510.928 532.316C509.721 533.011 508.281 533.72 507.179 534.524L507.024 535.207C499.712 539.504 487.637 539.717 479.338 539.766L461.547 539.81C456.712 539.854 451.877 539.76 447.047 539.529C445.924 539.477 443.812 539.557 442.808 539.268C441.255 538.988 433.096 539.126 431.23 539.132L407.77 539.148L317.708 539.146L187.194 539.141L149.23 539.168C144.713 539.166 134.849 538.818 130.938 539.261C129.088 539.648 120.403 539.495 118.142 539.494L91.224 539.494C87.6066 539.499 76.6058 540.088 74.1744 539.547C72.3711 539.697 70.6326 539.381 68.8627 539.059C54.5308 536.304 41.8358 528.075 33.4705 516.116C29.2571 509.973 24.039 497.585 25.4916 489.975L25.7389 490.018L26.1744 491.633L26.0116 203.98L25.9719 113.376C25.9838 105.493 25.9366 97.6099 25.8303 89.7274C25.6451 72.6282 25.262 59.6806 36.7238 45.502C44.8068 35.503 55.4137 28.7428 68.1703 26.3857C72.6722 25.5539 77.0462 25.669 81.5132 25.1205Z"/><path fill="#E2E2E2" transform="translate(10 5)" d="M74.1744 539.547C72.3711 539.697 70.6326 539.381 68.8627 539.059C54.5308 536.304 41.8358 528.075 33.4705 516.116C29.2571 509.973 24.039 497.585 25.4916 489.975L25.7389 490.018L26.1744 491.633C27.2086 504.972 33.55 517.338 43.778 525.963C50.7409 531.911 59.4559 535.971 68.3965 537.974C71.3415 538.634 74.0346 538.691 76.7076 539.172C76.0992 539.228 74.5657 539.269 74.1744 539.547Z"/><path fill="#E2E2E2" transform="translate(10 5)" d="M442.808 539.268C451.2 539.497 459.781 539.104 468.18 539.246C482.683 539.49 493.359 539.727 507.179 534.524L507.024 535.207C499.712 539.504 487.637 539.717 479.338 539.766L461.547 539.81C456.712 539.854 451.877 539.76 447.047 539.529C445.924 539.477 443.812 539.557 442.808 539.268Z"/><path fill="#E2E2E2" transform="translate(10 5)" d="M81.5132 25.1205L80.1071 24.8048L80.0998 24.5851C80.9261 24.4429 84.0247 24.195 84.6429 24.311C90.4805 25.4068 133.043 24.1481 134.317 25.0127C116.822 25.0555 98.974 24.8264 81.5132 25.1205Z"/><path fill="#E2E2E2" transform="translate(10 5)" d="M76.7076 539.172L130.938 539.261C129.088 539.648 120.403 539.495 118.142 539.494L91.224 539.494C87.6066 539.499 76.6058 540.088 74.1744 539.547C74.5657 539.269 76.0992 539.228 76.7076 539.172Z"/><path fill="#E2E2E2" transform="translate(10 5)" d="M459.035 25.0204C460.472 24.7293 461.802 24.7773 463.263 24.7788C472.093 24.7878 480.892 24.861 489.714 24.458C490.378 24.4277 491.261 24.4438 491.838 24.7899L491.769 25.2088L491.392 25.4166C481.247 24.7387 469.33 25.0227 459.035 25.0204Z"/><path transform="translate(10 5)" d="M235.245 49.3737C245.4 49.1304 255.65 49.6203 265.809 49.6452C267.202 49.6487 268.653 49.6254 270.037 49.7106C254.962 52.1482 238.055 54.1579 231.931 70.2912C229.618 76.385 227.758 83.8301 226.787 90.2904C251.104 81.2108 293.526 81.8064 318.176 89.6224C315.998 78.8512 314.862 65.0107 304.737 58.2535C298.95 54.3918 287.513 51.5634 280.395 50.7296L280.22 49.8065L297.816 49.4251C301.435 49.3453 306.812 49.107 310.311 49.5579C312.2 54.1074 312.764 54.9826 317.506 56.9078C362.246 75.0712 402.407 116.129 408.993 165.352C409.141 166.452 409.206 167.551 409.451 168.684C413.055 172.033 424.035 185.06 423.629 189.762C423.251 194.149 424.378 210.303 423.118 213.519C421.104 215.173 416.527 215.017 413.819 215.122C413.896 221.498 413.893 227.875 413.811 234.251C413.763 237.15 413.221 244.906 413.724 247.433C414.572 251.7 421.554 259.585 421.081 264.168C420.955 265.395 419.457 268.005 418.879 269.312C419.998 267.95 421.434 265.491 423.326 266.719C425.034 270.544 418.782 286.048 415.709 288.617C413.467 289.069 412.343 283.318 411.888 281.645L407.434 291.754C405.869 292.782 404.841 293.434 403.183 294.298C403.663 295.091 404.411 296.297 404.325 297.248C404.133 299.367 407.291 300.165 409.043 301.1C426.742 310.542 427.789 323.461 415.779 338.611C413.833 341.067 408.643 348.755 404.611 345.809C403.624 345.094 402.984 343.996 402.848 342.785C402.135 336.665 412.747 328.176 404.5 317.445C403.642 320.96 402.845 324.48 401.993 328.008C400.03 336.131 397.085 344.3 401.243 352.183C394.365 353.691 391.377 356.51 387.637 362.316C395.247 356.849 400.693 355.668 410.239 357.05C417.756 358.138 421.671 361.483 426.362 367.191C420.94 365.394 415.952 364.156 410.226 365.333C401.989 367.026 396.03 371.548 391.773 378.705C394.414 376.487 396.492 374.758 399.571 373.085C410.729 367.022 427.947 367.856 434.545 380.173C435.343 381.663 436.016 383.398 436.654 384.981C424.513 376.638 410.655 377.615 399.656 387.473C415.15 381.652 438.572 381.581 441.09 402.424C429.101 391.834 415.577 389.116 402.466 399.621C412.079 395.858 418.926 394.904 428.788 399.145C433.711 401.263 438.57 404.63 440.761 409.756C442.191 413.102 441.007 416.074 440.611 419.594C436.187 412.939 431.411 408.314 423.166 406.597C416.857 405.266 410.278 406.53 404.911 410.103C404.086 410.656 403.42 411.186 402.66 411.833C408.138 410.422 412.69 409.605 418.432 410.164C430.547 411.344 443.514 422.314 435.783 435.265C434.58 437.303 433.017 439.105 431.17 440.583C427.309 430.511 416.853 423.18 406.51 420.582C402.693 419.624 399.675 420.621 396.039 421.944C407.384 422.328 414.244 425.196 422.157 433.477C428.302 439.907 429.534 448.003 422.203 454.112C419.942 455.996 416.994 457.506 415 459.295C415.722 443.242 404.792 429.36 388.547 427.789C392.412 422.287 394.22 418.298 393.118 411.328C391.989 404.194 386.739 397.918 382.238 392.468C362.782 368.91 374.447 349.359 388.97 327.726C393.126 321.536 395.075 319.919 395.176 312.327C394.058 314.257 392.672 316.791 391.116 318.375C386.659 317.655 380.294 315.124 376.08 313.17C378.002 322.184 377.472 330.267 372.223 337.887C368.054 343.94 361.196 350.929 354.671 354.071C341.032 360.639 329.896 369.655 319.398 380.485C316.012 383.977 315.314 389.063 313.022 393.202C309.69 398.877 305.775 404.655 302.161 410.185C301.88 400.277 299.221 391.169 296.249 381.812C295.442 379.273 294.955 376.879 294.848 374.215C300.979 373.975 307.105 373.602 313.22 373.097C308.949 364.864 301.694 353.702 293.13 349.533C296.071 346.227 297.262 344.639 299.588 340.814C308.529 346.849 318.877 360.617 321.377 371.16C331.118 364.001 337.962 358.663 346.497 348.826C352.107 342.362 361.404 324.302 346.546 320.874C339.257 319.192 326.874 326.382 321.65 330.728C316.834 334.571 313.858 338.05 310.241 342.787C312.152 338.414 313.933 333.708 316.078 329.48C324.652 312.577 338.921 298.452 358.788 298.218C358.971 293.045 359.011 289.601 357.803 284.537C341.454 283.578 317.268 284.135 305.078 271.268C296.734 262.234 297.462 248.992 285.958 242.692C277.669 238.153 261.721 238.997 255.434 245.952C243.404 259.259 249.188 271.455 228.469 278.956C223.46 280.728 218.283 281.986 213.019 282.709C208.64 283.354 191.835 283.724 189.612 285.224C187.853 286.411 187.465 289.011 187.384 290.961C187.288 293.273 187.602 295.618 188.036 297.885C201.928 298.634 209.477 303.423 219.107 313.723C225.541 320.605 232.462 333.28 235.452 342.499C227.979 331.517 216.295 321.519 202.487 320.179C199.958 319.934 197.189 320.39 195.068 321.866C192.92 323.374 191.498 325.709 191.145 328.31C190.211 334.917 195.888 343.944 199.819 348.846C207.671 358.637 215.844 364.664 226.456 371.024C229.588 358.368 236.643 349.014 246.92 341.06C248.547 343.476 250.584 346.953 252.444 349.02C242.93 356.412 238.007 361.729 233.404 373.039C239.068 373.483 246.763 374.172 252.384 374.282C249.894 384.959 246.548 396.523 243.604 407.129C235.63 402.733 235.947 397.186 232.511 389.258C230.82 385.373 228.542 381.77 225.756 378.577C218.234 369.893 206.232 361.4 195.888 356.445C180.018 348.842 162.715 334.075 168.055 314.417L164.104 311.953C163.736 313.698 163.612 315.23 161.415 315.085C159.262 313.492 160.369 311.038 161.278 309.095L158.672 307.244C156.788 309.587 155.343 311.254 153.12 313.257C150.255 315.978 145.786 318.205 144.374 322.1C141.192 330.88 147.595 339.573 154.27 344.614C171.946 357.964 195.883 359.072 210.892 376.336C200.058 371.757 187.48 368.805 176.275 364.663C152.544 355.889 119.595 335.284 130.179 305.359C131.368 302.014 135.286 297.543 137.582 294.721C132.706 289.07 132.646 288.049 132.281 280.647C130.778 283.618 129.844 286.252 128.784 289.403C127.59 286.243 119.871 268.105 123.565 265.811C124.509 266.029 124.527 266.073 125.342 266.518C126.045 265.553 124.647 262.305 124.952 261.366C126.714 255.937 130.006 251.1 132.419 245.842L132.34 245.911C131.86 242.074 131.987 237.562 131.988 233.651C132.024 227.463 132.002 221.274 131.922 215.087C129.571 215.005 123.607 215.172 122.132 213.672C120.328 209.549 121.474 193.784 121.435 188.615C121.37 180.154 129.726 175.221 134.783 169.863L134.884 169.503C135.743 166.398 136.301 162.68 136.988 159.474C138.031 154.744 139.324 150.072 140.863 145.48C152.788 111.878 176.545 83.7708 207.691 66.4153C212.596 63.6552 217.656 61.1789 222.846 58.9986C225.336 57.9716 230.221 56.2335 232.36 55.1346C233.656 53.227 234.522 51.5936 235.245 49.3737Z"/><path fill="#F5F5F4" transform="translate(10 5)" d="M266.506 91.8238C272.269 91.3471 280.046 91.6395 285.839 92.0897C313.423 94.2341 338.657 103.358 362.803 116.489C364.257 109.897 363.681 105.695 363.118 99.0613C373.892 107.359 381.705 116.254 388.724 128.181C396.982 142.215 405.307 160.452 408.219 176.621C408.997 180.944 407.948 187.051 406.058 190.936C405.463 192.358 404.071 194.021 404.076 195.603C404.158 220.395 402.832 245.31 397.144 269.53C395.476 276.634 393.923 279.339 387.575 283.153C383.368 280.655 378.384 280.446 376.081 285.858C374.43 289.734 377.102 294.561 378.765 298.202C377.046 300.746 375.477 303.152 373.514 305.52C371.514 304.284 369.213 302.495 367.288 301.077C367.282 293.981 368.061 288.151 365.857 281.236C370.045 279.544 373.747 278.023 377.658 275.755C383.543 272.395 387.878 267.779 390.494 261.412C399.58 239.297 400.404 214.114 401.056 190.527C401.406 177.868 401.302 166.862 394.45 155.793C382.876 137.096 365.858 122.295 346.105 112.759C337.6 108.682 327.537 105.737 318.403 103.509C315.234 105.62 311.892 107.777 308.509 109.524C297.814 107.695 286.996 106.679 276.148 106.485C262.808 105.876 248.704 107.754 235.538 109.864C232.466 107.825 229.984 105.982 227.259 103.487C196.9 111.356 172.314 124.53 154.634 151.554C144.905 166.424 145.393 172.553 145.149 189.796C144.804 214.282 145.514 240.862 157.207 263.052C162.589 273.267 170.561 278.388 181.36 281.399C179.649 288.428 178.824 292.542 179.349 299.831C177.508 301.199 176.227 302.348 174.519 303.896C171.754 302.212 170.109 301.173 167.568 299.162C168.572 296.349 172.674 285.049 168.287 284.399C167.415 284.835 167.131 285.489 166.589 286.322C161.511 282.393 156.746 278.453 150.696 276.252C149.644 270.165 148.553 264.085 147.423 258.012C143.331 236.715 141.211 218.344 141.35 196.676C141.369 193.784 136.16 187.562 136.561 182.373C137.773 166.681 145.192 148.482 152.849 134.7C156.774 127.702 161.232 121.015 166.181 114.699C171.968 107.432 176.618 103.928 182.436 97.7209C180.727 106.881 181.514 107.93 182.427 116.973C208.928 100.78 235.762 94.0183 266.506 91.8238Z"/><path fill="#F5F5F4" transform="translate(10 5)" d="M196.381 129.701L196.589 129.906C196.395 130.824 195.043 132.571 194.467 133.381C176.763 158.246 170.926 190.121 168.96 220.009C168.63 225.021 169.008 230.411 168.632 235.595L167.441 229.74C167.146 227.984 166.807 226.218 166.46 224.476C163.059 207.36 161.964 189.868 162.256 172.456C162.418 162.857 161.366 160.467 167.584 152.674C175.756 142.433 185.09 135.776 196.381 129.701Z"/><path fill="#F5F5F4" transform="translate(10 5)" d="M348.523 128.6C353.531 130.06 367.72 141.723 371.553 145.472C374.109 147.98 376.475 150.675 378.63 153.534C379.978 155.348 383.693 160.688 383.838 162.86C385.288 184.491 382.28 208.423 379.167 229.467L378.028 235.985C377.022 228.822 377.214 220.598 376.729 213.149C375.105 188.208 369.982 163.148 357.681 141.155C355.146 136.623 351.527 132.765 348.523 128.6Z"/><path fill="#F5F5F4" transform="translate(10 5)" d="M319.186 69.253C331.48 73.63 346.946 78.5962 354.103 90.2871C357.651 96.0818 359.804 104.32 359.941 111.103C358.342 110.239 354.613 107.029 352.527 105.774C343.024 100.058 333.679 94.4312 323.05 91.0682C322.244 83.9136 321.638 75.9728 319.186 69.253Z"/><path fill="#F5F5F4" transform="translate(10 5)" d="M226.666 69.4695C227.201 69.8993 225.865 72.9355 225.627 73.6091C223.561 79.4463 222.657 85.519 221.674 91.6035C208.041 96.1174 197.679 102.044 186.311 110.61C184.77 108.457 188.288 97.2938 189.327 94.6782C195.875 78.1972 211.83 75.2177 226.666 69.4695Z"/><path fill="#F5F5F4" transform="translate(10 5)" d="M307.334 253.262C308.842 253.863 312.238 257.376 313.378 258.616C321.674 267.643 327.555 272.842 339.929 275.7C342.864 276.378 345.997 276.854 348.988 277.519C343.376 278.987 327.37 276.384 321.614 274.744C316.739 273.356 315.137 271.021 313.385 266.443C311.689 262.013 309.529 257.557 307.334 253.262Z"/><path fill="#F5F5F4" transform="translate(10 5)" d="M236.516 254.94L236.811 255.314C236.532 257.46 229.402 271.208 227.617 272.674C221.359 277.818 204.319 278.283 196.474 278.074L196.347 278.028L196.435 277.781C199.525 277.434 203.574 276.027 206.612 275.199C220.185 271.501 227.286 265.28 236.516 254.94Z"/><path fill="#F5F5F4" transform="translate(10 5)" d="M391.172 305.518C395.328 307.181 390.998 313.09 389.04 314.617L386.161 313.161C388.181 310.342 389.426 308.544 391.172 305.518Z"/><path fill="#F5F5F4" transform="translate(10 5)" d="M143.519 283.299C143.736 283.359 143.953 283.422 144.168 283.487C145.286 283.83 146.06 284.044 146.616 285.078C146.49 286.169 146.572 285.796 145.623 286.755C144.812 287.392 145.224 287.32 144.403 287.318C143.604 286.297 143.487 284.569 143.519 283.299Z"/><path transform="translate(10 5)" d="M253.714 401.547C266.525 401.899 280.463 401.39 293.535 401.611C293.68 406.669 293.817 413.384 293.537 418.342C289.797 419.469 286.12 419.9 282.406 421.129C284.614 422.052 293.19 425.607 293.729 427.733C292.791 429.412 278.149 434.425 274.776 436.572C270.984 438.987 269.676 439.094 265.806 442.667C275.343 439.75 285.308 435.83 294.802 432.637C297.881 437.163 295.418 437.588 292.43 441.517C287.193 448.402 281.109 455.254 277.189 462.992C279.648 461.004 282.64 457.489 284.945 455.143C289.886 450.116 294.879 444.976 300.319 440.476C302.383 442.304 303.301 442.914 305.025 445.085C304.172 448.26 302.628 451.914 301.408 455.013C298.918 461.002 296.777 468.133 294.375 474.384C297.181 471.081 301.161 463.52 303.575 459.646C305.328 456.832 308.205 452.242 309.569 449.338C312.079 450.167 312.659 450.632 314.518 452.358C314.254 459.835 310.739 485.156 308.298 491.371C288.177 493.484 269.688 484.476 259.976 466.653C252.978 453.811 251.636 443.154 249.496 429.166C259.421 423.492 259.596 420.13 250.571 412.903C251.568 410.338 252.937 404.467 253.714 401.547Z"/><path transform="translate(10 5)" d="M269.757 306.959C282.062 305.03 293.612 313.413 295.59 325.71C297.568 338.008 289.231 349.59 276.941 351.617C264.583 353.655 252.921 345.26 250.932 332.894C248.943 320.528 257.383 308.9 269.757 306.959Z"/><path transform="translate(10 5)" d="M268.143 356.125C270.949 356.478 274.848 356.326 277.743 356.284C278.442 358.203 279.358 360.3 280.149 362.199C284.829 373.436 288.691 384.77 292.441 396.345L279.59 396.393C271.425 396.353 263.259 396.402 255.095 396.539C257.719 383.91 263.829 368.443 268.143 356.125Z"/><path transform="translate(10 5)" d="M323.72 450.853C326.625 450.699 328.195 452.033 329.706 454.458C336.124 464.765 340.669 482.434 338.274 494.352C335.327 494.916 332.294 495.225 329.308 495.53C324.557 496.064 318.848 495.978 314.005 495.994C316.885 484.114 318.637 471.988 319.237 459.779C319.343 457.91 319.374 453.874 320.372 452.26C320.805 451.56 322.901 451.065 323.72 450.853Z"/><path transform="translate(10 5)" d="M376.387 437.039C384.307 439.286 390.021 442.544 394.594 449.729C397.38 454.107 400.2 462.224 399.01 467.491C398.177 471.174 393.124 473.664 389.932 475.542L387.762 476.54C386.949 460.005 381.71 450.195 367.415 441.499C369.698 440.671 374.011 438.281 376.387 437.039Z"/><path transform="translate(10 5)" d="M346.015 447.027C348.869 446.895 350.895 447.593 353.23 449.225C365.475 457.779 373.644 470.236 370.845 485.347C369.216 486.29 368.127 486.768 366.393 487.521C363.429 488.811 359.107 489.825 355.909 490.653C357.653 478.303 356.645 466.541 350.892 455.078C349.378 452.061 347.076 450.078 345.471 447.546L346.015 447.027Z"/><path transform="translate(10 5)" d="M386.785 429.582C387.333 429.66 387.88 429.748 388.424 429.848C401.381 432.251 413.335 444.338 412.179 458.686C411.89 462.274 406.781 464.983 403.873 466.819L401.802 468.34C404.205 453.382 394.265 439.191 379.899 434.987C382.71 433.247 384.404 431.86 386.785 429.582Z"/><path transform="translate(10 5)" d="M363.353 443.104C363.994 443.157 365.53 444.067 366.179 444.451C372.061 447.937 377.889 453.42 380.725 459.746C382.99 464.8 385.451 472.124 383.634 477.657C382.483 480.854 379.432 481.806 376.529 483.122C375.986 483.33 376.289 483.245 375.612 483.343C375.065 482.488 375.328 479.606 375.174 478.133C373.599 463.028 367.018 454.745 355.785 445.536C358.313 444.742 360.835 443.931 363.353 443.104Z"/><path transform="translate(10 5)" d="M337.817 449.294L341.32 448.977C347.77 457.923 351.352 464.246 352.225 475.862C352.519 479.771 351.959 489.197 349.393 492.083C347.757 492.573 346.133 492.927 344.47 493.31C344.931 482.83 342.628 472.258 339.334 462.371C338.409 459.594 335.125 453.073 335.971 450.373C336.54 449.603 336.902 449.588 337.817 449.294Z"/><path transform="translate(10 5)" d="M363.52 360.2C364.084 361.01 362.962 367.412 362.746 368.947C355.547 372.387 346.673 372.309 337.86 375.544L337.701 375.167C347.953 364.858 352.578 367.108 363.52 360.2Z"/><path transform="translate(10 5)" d="M246.408 286.207C246.683 278.002 248.541 269.802 252.036 262.366C254.456 257.218 255.913 254.529 261.526 252.444C253.654 263.67 249.753 272.395 247.433 285.921L246.408 286.207Z"/><path transform="translate(10 5)" d="M284.206 252.507C286.226 253.289 287.516 253.912 289.091 255.473C294.566 260.902 298.762 274.882 298.823 282.22C298.732 283.529 299 285.486 297.961 286.231C296.062 272.956 292.141 263.294 284.206 252.507Z"/><path transform="translate(10 5)" d="M298.823 282.22C299.185 285.024 298.911 288.357 298.662 291.174L298.503 291.297C298.147 289.42 298.08 288.135 297.961 286.231C299 285.486 298.732 283.529 298.823 282.22Z"/><path transform="translate(10 5)" d="M246.408 286.207L247.433 285.921C247.104 288.047 246.899 290.78 246.318 292.782C246.268 290.654 246.141 288.296 246.408 286.207Z"/><path fill="#292328" transform="translate(10 5)" d="M275.741 49.8626C277.268 49.7887 278.697 49.7987 280.22 49.8065L280.395 50.7296C278.846 50.4927 277.282 50.1642 275.741 49.8626Z"/></svg>