<?xml version="1.0" encoding="utf-8" ?><svg xmlns="http://www.w3.org/2000/svg" xmlns:xlink="http://www.w3.org/1999/xlink" width="1024" height="1024" viewBox="0 0 1024 1024"><path fill="#E2E2E2" d="M0 0L1024 0L1024 1024L0 1024L0 0Z"/><path d="M511.763 261.911C512.417 262.55 513.976 273.703 514.734 276.111C525.909 311.639 552.975 331.597 588.055 341.214C566.191 345.44 548.705 353.814 535.157 372.139C522.945 388.686 517.946 409.469 521.3 429.759C524.361 449.422 535.32 466.982 551.639 478.37C568.615 490.454 588.082 495.421 608.74 491.769C628.83 488.178 646.614 476.617 658.049 459.713C673.223 437.642 673.724 418.355 669.085 393.007C672.548 400.193 675.224 408.013 678.725 415.2C694.841 448.291 717.161 479.936 751.888 495.28C755.053 496.679 758.25 497.803 761.39 499.348C762.105 500.623 761.913 499.923 761.59 501.579C758.219 503.306 727.328 502.579 721.863 502.549L669.134 502.453C620.261 502.815 571.385 502.808 522.512 502.433L522.506 521.98L701.318 521.978C718.655 521.964 742.227 521.482 759.95 522.388C761.166 522.45 761.459 523.623 761.922 524.609C761.384 526.297 755.013 528.235 752.863 529.101C741.374 533.728 727.755 543.067 718.999 551.759C702.131 568.505 689.251 589.45 679.302 610.92C676.54 616.88 674.279 622.83 671.39 628.701C672.068 624.432 672.466 620.123 672.581 615.802C673.538 571.68 641.83 531.942 596.219 531.51C575.921 531.201 556.364 539.134 542.016 553.496C532.212 563.226 525.375 575.543 522.303 589.01C520.026 599.218 520.517 610.013 520.543 620.448L520.601 651.477L520.522 759.467C517.584 759.804 514.684 759.865 511.73 759.979L503.289 760.035L503.183 650.876L503.208 619.539C503.207 614.278 503.161 609.021 503.118 603.762C502.952 583.712 494.152 565.957 480.077 551.881C461.99 533.793 436.685 527.103 411.803 532.477C391.899 536.707 374.53 548.76 363.601 565.926C351.505 584.693 348.843 606.692 353.581 628.257C337.768 593.411 322.831 563.863 290.126 541.241C285.088 537.698 279.831 534.475 274.387 531.592C270.007 529.225 262.763 525.651 259.053 522.808L258.511 522.387C339.359 521.667 420.21 521.466 501.061 521.783L501.03 502.613C478.551 502.148 453.528 502.785 430.884 502.793L336.271 502.314L289.422 502.34C280.497 502.328 267.599 502.533 258.972 501.592C262.333 499.304 268.261 496.7 272.071 494.798C278.059 491.771 283.88 488.425 289.509 484.773C322.376 463.119 339.036 428.95 354.942 394.48C350.74 417.558 351.907 438.473 365.343 458.605C376.678 475.596 394.384 487.3 414.459 491.071C434.329 494.821 454.873 490.452 471.499 478.941C487.039 468.316 499.337 450.223 502.425 431.509C509.838 386.596 482.119 349.406 437.567 341.593C449.247 338.769 467.868 329.371 477.262 322.016C497.171 306.426 508.549 286.859 511.763 261.911Z"/><path d="M751.206 565.894C751.508 567.963 748.501 576.161 747.76 578.584C739.533 605.493 728.039 629.876 712.223 653.225C683.078 696.006 641.198 728.519 592.528 746.148C581.565 750.111 572.621 753.012 561.22 755.204C561.079 751.63 566.081 741.274 567.635 737.598C578.403 712.124 596.261 694.734 620.796 682.584C628.352 678.842 636.839 675.393 644.262 671.251C661.311 661.572 677.367 650.241 692.198 637.42C708.377 623.523 720.593 610.434 732.933 592.878C739.197 583.967 744.962 574.772 751.206 565.894Z"/><path d="M465.333 270.596C465.85 270.524 465.463 270.55 466.467 270.856C466.32 274.276 460.585 283.991 458.613 287.476C431.122 336.073 384.525 345.684 344.116 378.819C312.441 404.793 294.682 424.306 273.669 458.825L273.243 459.225C272.687 456.897 275.685 448.424 276.478 445.745C296.816 377.037 345.72 317.272 411.527 287.72C429.526 279.637 446.211 274.792 465.333 270.596Z"/><path d="M273.577 566.422C274.861 567.716 281.822 580.321 283.975 583.314C291.515 593.795 299.345 604.05 307.961 613.658C328.263 636.295 352.937 656.911 379.713 671.396C392.275 678.191 404.49 681.673 416.614 690.111C439.777 706.233 455.526 725.942 460.943 753.826C456.47 753.556 449.537 751.062 445.053 749.767C360.194 725.258 293.375 652.929 273.577 566.422Z"/><path d="M557.918 270.223C640.881 284.233 713.043 350.942 741.734 428.332C745.283 437.904 750.335 450.139 752.049 460.136C751.081 459.049 748.24 454.388 747.309 452.937C744.19 447.983 740.937 443.115 737.554 438.338C725.138 421.013 711.023 404.971 695.418 390.451C679.723 376.1 662.643 363.342 644.427 352.366C635.771 347.157 624.898 342.068 615.648 336.953C591.13 323.394 566.889 297.16 557.918 270.223Z"/></svg>